
<svg xmlns="http://www.w3.org/2000/svg"  width="100%" height="100%" viewBox="0 0 156 156">
<style type="text/css">
	path { fill: #11ad8b; }
	@media (prefers-color-scheme: dark) {
		path { fill: #11ad8b; }
	}
</style>
	<title id="site-logo-title">Higgs Logo</title>
	<path class="st0" d="M128.1,141.4c-8.8,0-15.9-7.1-15.9-15.9c0-0.5,0-1.1,0.1-1.7c0.4-3.8-1.2-7.6-4.2-10c-2-1.6-4.6-2.5-7.1-2.5
		c-1.2,0-2.4,0.2-3.6,0.6c-3.3,1.1-6.8,1.7-10.3,1.7c-8.4,0-16.4-3.2-22.5-8.9c-2.1-2-4.9-3.1-7.8-3.1c-1,0-2,0.1-3,0.4
		c-3.8,1-6.8,4-7.9,7.8c-2.2,7.4-9,12.5-16.7,12.5c-9.6,0-17.4-7.8-17.4-17.4c0-9.6,7.8-17.4,17.4-17.4c3,0,5.8,0.7,8.3,2.1
		c1.7,0.9,3.6,1.4,5.4,1.4c2,0,3.9-0.5,5.7-1.5c3.4-2,5.6-5.6,5.7-9.5C54.9,62.1,69.3,48,87.2,48c2.5,0,5,0.3,7.5,0.9
		c0.9,0.2,1.7,0.3,2.6,0.3c2.9,0,5.8-1.1,7.9-3.2c2.8-2.7,4-6.6,3.2-10.4c-0.2-0.9-0.3-1.8-0.3-2.7c0-7.5,6.1-13.6,13.6-13.6
		c7.5,0,13.6,6.1,13.6,13.6c0,6.8-5.1,12.6-11.9,13.5c-3.8,0.5-7.2,2.9-8.8,6.4s-1.5,7.6,0.6,10.9c3.2,5.2,4.9,11.1,4.9,17.2
		c0,4.5-0.9,8.9-2.7,13c-1.5,3.5-1.2,7.6,1,10.8c2.1,3.2,5.6,5,9.4,5c0.1,0,0.5,0,0.5,0c8.7,0,15.8,7.1,15.8,15.9
		C144,134.3,136.9,141.4,128.1,141.4z"/>
	<path class="st0" d="M128.1,141.4c-8.8,0-15.9-7.1-15.9-15.9c0-0.5,0-1.1,0.1-1.7c0.4-3.8-1.2-7.6-4.2-10c-2-1.6-4.6-2.5-7.1-2.5
		c-1.2,0-2.4,0.2-3.6,0.6c-3.3,1.1-6.8,1.7-10.3,1.7c-8.4,0-16.4-3.2-22.5-8.9c-2.1-2-4.9-3.1-7.8-3.1c-1,0-2,0.1-3,0.4
		c-3.8,1-6.8,4-7.9,7.8c-2.2,7.4-9,12.5-16.7,12.5c-9.6,0-17.4-7.8-17.4-17.4c0-9.6,7.8-17.4,17.4-17.4c3,0,5.8,0.7,8.3,2.1
		c1.7,0.9,3.6,1.4,5.4,1.4c2,0,3.9-0.5,5.7-1.5c3.4-2,5.6-5.6,5.7-9.5C54.9,62.1,69.3,48,87.2,48c2.5,0,5,0.3,7.5,0.9
		c0.9,0.2,1.7,0.3,2.6,0.3c2.9,0,5.8-1.1,7.9-3.2c2.8-2.7,4-6.6,3.2-10.4c-0.2-0.9-0.3-1.8-0.3-2.7c0-7.5,6.1-13.6,13.6-13.6
		c7.5,0,13.6,6.1,13.6,13.6c0,6.8-5.1,12.6-11.9,13.5c-3.8,0.5-7.2,2.9-8.8,6.4s-1.5,7.6,0.6,10.9c3.2,5.2,4.9,11.1,4.9,17.2
		c0,4.5-0.9,8.9-2.7,13c-1.5,3.5-1.2,7.6,1,10.8c2.1,3.2,5.6,5,9.4,5c0.1,0,0.5,0,0.5,0c8.7,0,15.8,7.1,15.8,15.9
		C144,134.3,136.9,141.4,128.1,141.4z"/>
</svg>
