
<svg xmlns="http://www.w3.org/2000/svg"  width="100%" height="100%" viewBox="0 0 156 156">
<style type="text/css">
	path { fill: #00A996; }
	@media (prefers-color-scheme: dark) {
		path { fill: #00A996; }
	}
</style>
	<title id="site-logo-title">Higgs Logo</title>
	<path class="st0" d="M127.6,139.8c-10.5,0-19-8.5-19-19c0-1.1,0.1-2.2,0.3-3.3c0.5-3.1-0.7-6.2-3.1-8.2c-1.5-1.2-3.4-1.8-5.2-1.8
		c-1.2,0-2.3,0.2-3.4,0.7c-4.5,2-9.4,3-14.4,3c-10.4,0-20.2-4.5-27-12.4c-1.6-1.9-4-2.9-6.4-2.9c-0.7,0-1.4,0.1-2.1,0.3
		c-3.1,0.8-5.5,3.3-6.2,6.4c-1.6,7.3-8.2,12.6-15.7,12.6c-8.9,0-16.1-7.2-16.1-16.1c0-8.9,7.2-16.1,16.1-16.1
		c3.1,0,6.1,0.9,8.7,2.6c1.4,0.9,3,1.4,4.6,1.4c1.5,0,3-0.4,4.3-1.2c2.8-1.6,4.4-4.7,4.2-7.9c-0.1-1-0.1-1.7-0.1-2.5
		C47.1,56,63.1,40,82.7,40c4.6,0,9,0.9,13.3,2.6c1,0.4,2.1,0.6,3.2,0.6c2,0,4.1-0.7,5.7-2.2c2.4-2.1,3.4-5.5,2.5-8.6
		c-0.3-1.2-0.5-2.3-0.5-3.4c0-7.1,5.8-12.9,12.9-12.9c7.1,0,12.9,5.8,12.9,12.9c0,7.1-5.8,12.9-12.8,12.9c0,0-0.5,0-0.6,0
		c-0.1,0-0.2,0-0.4,0c-3.1,0-6,1.7-7.5,4.4c-1.6,2.8-1.4,6.3,0.5,9c4.2,6,6.4,13,6.4,20.4c0,5.1-1,10-3.1,14.6
		c-1.3,2.9-0.9,6.2,1,8.7c1.6,2.1,4.1,3.3,6.7,3.3c0.5,0,0.9,0,1.4-0.1c1.1-0.2,2.2-0.3,3.2-0.3c10.5,0,19,8.5,19,19
		S138.1,139.8,127.6,139.8z"/>
	<path class="st0" d="M127.6,139.8c-10.5,0-19-8.5-19-19c0-1.1,0.1-2.2,0.3-3.3c0.5-3.1-0.7-6.2-3.1-8.2c-1.5-1.2-3.4-1.8-5.2-1.8
		c-1.2,0-2.3,0.2-3.4,0.7c-4.5,2-9.4,3-14.4,3c-10.4,0-20.2-4.5-27-12.4c-1.6-1.9-4-2.9-6.4-2.9c-0.7,0-1.4,0.1-2.1,0.3
		c-3.1,0.8-5.5,3.3-6.2,6.4c-1.6,7.3-8.2,12.6-15.7,12.6c-8.9,0-16.1-7.2-16.1-16.1c0-8.9,7.2-16.1,16.1-16.1
		c3.1,0,6.1,0.9,8.7,2.6c1.4,0.9,3,1.4,4.6,1.4c1.5,0,3-0.4,4.3-1.2c2.8-1.6,4.4-4.7,4.2-7.9c-0.1-1-0.1-1.7-0.1-2.5
		C47.1,56,63.1,40,82.7,40c4.6,0,9,0.9,13.3,2.6c1,0.4,2.1,0.6,3.2,0.6c2,0,4.1-0.7,5.7-2.2c2.4-2.1,3.4-5.5,2.5-8.6
		c-0.3-1.2-0.5-2.3-0.5-3.4c0-7.1,5.8-12.9,12.9-12.9c7.1,0,12.9,5.8,12.9,12.9c0,7.1-5.8,12.9-12.8,12.9c0,0-0.5,0-0.6,0
		c-0.1,0-0.2,0-0.4,0c-3.1,0-6,1.7-7.5,4.4c-1.6,2.8-1.4,6.3,0.5,9c4.2,6,6.4,13,6.4,20.4c0,5.1-1,10-3.1,14.6
		c-1.3,2.9-0.9,6.2,1,8.7c1.6,2.1,4.1,3.3,6.7,3.3c0.5,0,0.9,0,1.4-0.1c1.1-0.2,2.2-0.3,3.2-0.3c10.5,0,19,8.5,19,19
		S138.1,139.8,127.6,139.8z"/>
</svg>
